# xmcd
#
# Track frame offsets:
#	150
#	33960
#	67572
#	94987
#	124117
#	155785
#	183692
#	215667
#	245040
#	274915
#	306150
#
# Disc length: 4487 seconds
#
# Revision: 0
# Processed by: cddbd v1.5.1PL2 Copyright (c) Steve Scherf et al.
# Submitted via: audiograbber 1.83.01
#
DISCID=a211850b
DTITLE=Razormaid! - The Very Best of Razormaid! III
DYEAR=1900
DGENRE=Rock
TTITLE0=Eurythmics - Beethoven
TTITLE1=16 Bit - Where Are You?
TTITLE2=Microchip League - Power Plant
TTITLE3=Tanz Waffen - Submission
TTITLE4=League of Gentlemen - Humatic
TTITLE5=I Start Counting - Lose Him
TTITLE6=Pet Shop Boys - Always On My Mind
TTITLE7=Fou Gorki - Save Me
TTITLE8=English Boy on the Love Ranch - The Man in Your Life
TTITLE9=CCP - A Solution
TTITLE10=Until December - Mercenary
EXTD=
EXTT0=
EXTT1=
EXTT2=
EXTT3=
EXTT4=
EXTT5=
EXTT6=
EXTT7=
EXTT8=
EXTT9=
EXTT10=
PLAYORDER=
